<mxfile host="app.diagrams.net" modified="2024-06-26T05:58:28.957Z" agent="Mozilla/5.0 (Macintosh; Intel Mac OS X 10_15_7) AppleWebKit/537.36 (KHTML, like Gecko) Chrome/126.0.0.0 Safari/537.36" etag="v6kUooJ5BEMp9-DML5WF" version="24.6.2" type="device" pages="6">
  <diagram name="factorial 추적" id="pvkV90W081bUdA1PjkTR">
    <mxGraphModel dx="2060" dy="1141" grid="1" gridSize="10" guides="1" tooltips="1" connect="1" arrows="1" fold="1" page="1" pageScale="1" pageWidth="1169" pageHeight="827" math="0" shadow="0">
      <root>
        <mxCell id="0" />
        <mxCell id="1" parent="0" />
        <mxCell id="fdDKmjPF1dMZKq8-1kWD-3" value="f(5)" style="text;html=1;whiteSpace=wrap;overflow=hidden;rounded=0;fontSize=16;fontStyle=1" vertex="1" parent="1">
          <mxGeometry x="150" y="90" width="40" height="30" as="geometry" />
        </mxCell>
        <mxCell id="fdDKmjPF1dMZKq8-1kWD-4" value="5 * f(4)" style="text;html=1;whiteSpace=wrap;overflow=hidden;rounded=0;fontSize=16;fontStyle=1" vertex="1" parent="1">
          <mxGeometry x="150" y="140" width="60" height="30" as="geometry" />
        </mxCell>
        <mxCell id="fdDKmjPF1dMZKq8-1kWD-5" value="5 * 4 * f(3)" style="text;html=1;whiteSpace=wrap;overflow=hidden;rounded=0;fontSize=16;fontStyle=1" vertex="1" parent="1">
          <mxGeometry x="150" y="190" width="80" height="30" as="geometry" />
        </mxCell>
        <mxCell id="fdDKmjPF1dMZKq8-1kWD-6" value="5 * 4 * 3 * f(2)" style="text;html=1;whiteSpace=wrap;overflow=hidden;rounded=0;fontSize=16;fontStyle=1" vertex="1" parent="1">
          <mxGeometry x="150" y="240" width="100" height="30" as="geometry" />
        </mxCell>
        <mxCell id="fdDKmjPF1dMZKq8-1kWD-7" value="5 * 4 * 3 * 2 * f(1)" style="text;html=1;whiteSpace=wrap;overflow=hidden;rounded=0;fontSize=16;fontStyle=1" vertex="1" parent="1">
          <mxGeometry x="150" y="290" width="125.5" height="30" as="geometry" />
        </mxCell>
        <mxCell id="fdDKmjPF1dMZKq8-1kWD-8" value="5 * 4 * 3 * 2 * 1 * f(0)" style="text;html=1;whiteSpace=wrap;overflow=hidden;rounded=0;fontSize=16;fontStyle=1" vertex="1" parent="1">
          <mxGeometry x="150" y="340" width="150" height="30" as="geometry" />
        </mxCell>
        <mxCell id="fdDKmjPF1dMZKq8-1kWD-9" value="5 * 4 * 3 * 2 * 1 * 1" style="text;html=1;whiteSpace=wrap;overflow=hidden;rounded=0;fontSize=16;fontStyle=1" vertex="1" parent="1">
          <mxGeometry x="150" y="390" width="140" height="30" as="geometry" />
        </mxCell>
        <mxCell id="fdDKmjPF1dMZKq8-1kWD-10" value="" style="curved=1;endArrow=classic;html=1;rounded=0;exitX=-0.089;exitY=0.51;exitDx=0;exitDy=0;exitPerimeter=0;entryX=0;entryY=0.25;entryDx=0;entryDy=0;" edge="1" parent="1" source="fdDKmjPF1dMZKq8-1kWD-3" target="fdDKmjPF1dMZKq8-1kWD-4">
          <mxGeometry width="50" height="50" relative="1" as="geometry">
            <mxPoint x="120" y="280" as="sourcePoint" />
            <mxPoint x="170" y="230" as="targetPoint" />
            <Array as="points">
              <mxPoint x="120" y="110" />
              <mxPoint x="120" y="140" />
            </Array>
          </mxGeometry>
        </mxCell>
        <mxCell id="fdDKmjPF1dMZKq8-1kWD-12" value="" style="curved=1;endArrow=classic;html=1;rounded=0;exitX=-0.089;exitY=0.51;exitDx=0;exitDy=0;exitPerimeter=0;entryX=0;entryY=0.25;entryDx=0;entryDy=0;" edge="1" parent="1">
          <mxGeometry width="50" height="50" relative="1" as="geometry">
            <mxPoint x="146" y="160" as="sourcePoint" />
            <mxPoint x="150" y="203" as="targetPoint" />
            <Array as="points">
              <mxPoint x="120" y="165" />
              <mxPoint x="120" y="195" />
            </Array>
          </mxGeometry>
        </mxCell>
        <mxCell id="fdDKmjPF1dMZKq8-1kWD-13" value="" style="curved=1;endArrow=classic;html=1;rounded=0;exitX=-0.089;exitY=0.51;exitDx=0;exitDy=0;exitPerimeter=0;entryX=0;entryY=0.25;entryDx=0;entryDy=0;" edge="1" parent="1">
          <mxGeometry width="50" height="50" relative="1" as="geometry">
            <mxPoint x="146" y="210" as="sourcePoint" />
            <mxPoint x="150" y="253" as="targetPoint" />
            <Array as="points">
              <mxPoint x="120" y="215" />
              <mxPoint x="120" y="245" />
            </Array>
          </mxGeometry>
        </mxCell>
        <mxCell id="fdDKmjPF1dMZKq8-1kWD-14" value="" style="curved=1;endArrow=classic;html=1;rounded=0;exitX=-0.089;exitY=0.51;exitDx=0;exitDy=0;exitPerimeter=0;entryX=0;entryY=0.25;entryDx=0;entryDy=0;" edge="1" parent="1">
          <mxGeometry width="50" height="50" relative="1" as="geometry">
            <mxPoint x="146" y="260" as="sourcePoint" />
            <mxPoint x="150" y="303" as="targetPoint" />
            <Array as="points">
              <mxPoint x="120" y="265" />
              <mxPoint x="120" y="295" />
            </Array>
          </mxGeometry>
        </mxCell>
        <mxCell id="fdDKmjPF1dMZKq8-1kWD-15" value="" style="curved=1;endArrow=classic;html=1;rounded=0;exitX=-0.089;exitY=0.51;exitDx=0;exitDy=0;exitPerimeter=0;entryX=0;entryY=0.25;entryDx=0;entryDy=0;" edge="1" parent="1">
          <mxGeometry width="50" height="50" relative="1" as="geometry">
            <mxPoint x="146" y="310" as="sourcePoint" />
            <mxPoint x="150" y="353" as="targetPoint" />
            <Array as="points">
              <mxPoint x="120" y="315" />
              <mxPoint x="120" y="345" />
            </Array>
          </mxGeometry>
        </mxCell>
        <mxCell id="fdDKmjPF1dMZKq8-1kWD-16" value="call f(5)" style="text;html=1;whiteSpace=wrap;overflow=hidden;rounded=0;" vertex="1" parent="1">
          <mxGeometry x="70" y="110" width="50" height="30" as="geometry" />
        </mxCell>
        <mxCell id="fdDKmjPF1dMZKq8-1kWD-17" value="call f(4)" style="text;html=1;whiteSpace=wrap;overflow=hidden;rounded=0;" vertex="1" parent="1">
          <mxGeometry x="70" y="160" width="50" height="30" as="geometry" />
        </mxCell>
        <mxCell id="fdDKmjPF1dMZKq8-1kWD-18" value="call f(3)" style="text;html=1;whiteSpace=wrap;overflow=hidden;rounded=0;" vertex="1" parent="1">
          <mxGeometry x="70" y="210" width="50" height="30" as="geometry" />
        </mxCell>
        <mxCell id="fdDKmjPF1dMZKq8-1kWD-19" value="call f(2)" style="text;html=1;whiteSpace=wrap;overflow=hidden;rounded=0;" vertex="1" parent="1">
          <mxGeometry x="70" y="260" width="50" height="30" as="geometry" />
        </mxCell>
        <mxCell id="fdDKmjPF1dMZKq8-1kWD-20" value="call f(1)" style="text;html=1;whiteSpace=wrap;overflow=hidden;rounded=0;" vertex="1" parent="1">
          <mxGeometry x="70" y="320" width="50" height="30" as="geometry" />
        </mxCell>
        <mxCell id="fdDKmjPF1dMZKq8-1kWD-21" value="call f(0)" style="text;html=1;whiteSpace=wrap;overflow=hidden;rounded=0;" vertex="1" parent="1">
          <mxGeometry x="70" y="370" width="50" height="30" as="geometry" />
        </mxCell>
        <mxCell id="fdDKmjPF1dMZKq8-1kWD-22" value="" style="curved=1;endArrow=classic;html=1;rounded=0;exitX=-0.089;exitY=0.51;exitDx=0;exitDy=0;exitPerimeter=0;entryX=0;entryY=0.25;entryDx=0;entryDy=0;" edge="1" parent="1">
          <mxGeometry width="50" height="50" relative="1" as="geometry">
            <mxPoint x="146" y="360" as="sourcePoint" />
            <mxPoint x="150" y="403" as="targetPoint" />
            <Array as="points">
              <mxPoint x="120" y="365" />
              <mxPoint x="120" y="395" />
            </Array>
          </mxGeometry>
        </mxCell>
        <mxCell id="fdDKmjPF1dMZKq8-1kWD-23" value="" style="curved=1;endArrow=classic;html=1;rounded=0;exitX=1.02;exitY=0.406;exitDx=0;exitDy=0;exitPerimeter=0;entryX=1;entryY=0.75;entryDx=0;entryDy=0;" edge="1" parent="1" source="fdDKmjPF1dMZKq8-1kWD-9" target="fdDKmjPF1dMZKq8-1kWD-8">
          <mxGeometry width="50" height="50" relative="1" as="geometry">
            <mxPoint x="330" y="406.5" as="sourcePoint" />
            <mxPoint x="326" y="363.5" as="targetPoint" />
            <Array as="points">
              <mxPoint x="320" y="400" />
              <mxPoint x="320" y="370" />
            </Array>
          </mxGeometry>
        </mxCell>
        <mxCell id="fdDKmjPF1dMZKq8-1kWD-24" value="" style="curved=1;endArrow=classic;html=1;rounded=0;exitX=1.02;exitY=0.406;exitDx=0;exitDy=0;exitPerimeter=0;entryX=1;entryY=0.75;entryDx=0;entryDy=0;" edge="1" parent="1" target="fdDKmjPF1dMZKq8-1kWD-7">
          <mxGeometry width="50" height="50" relative="1" as="geometry">
            <mxPoint x="300" y="359" as="sourcePoint" />
            <mxPoint x="307" y="320" as="targetPoint" />
            <Array as="points">
              <mxPoint x="320" y="350" />
              <mxPoint x="310" y="320" />
            </Array>
          </mxGeometry>
        </mxCell>
        <mxCell id="fdDKmjPF1dMZKq8-1kWD-25" value="" style="curved=1;endArrow=classic;html=1;rounded=0;exitX=1.02;exitY=0.406;exitDx=0;exitDy=0;exitPerimeter=0;entryX=1;entryY=0.75;entryDx=0;entryDy=0;" edge="1" parent="1">
          <mxGeometry width="50" height="50" relative="1" as="geometry">
            <mxPoint x="280" y="306" as="sourcePoint" />
            <mxPoint x="256" y="260" as="targetPoint" />
            <Array as="points">
              <mxPoint x="300" y="297" />
              <mxPoint x="290" y="267" />
            </Array>
          </mxGeometry>
        </mxCell>
        <mxCell id="fdDKmjPF1dMZKq8-1kWD-26" value="" style="curved=1;endArrow=classic;html=1;rounded=0;exitX=1.02;exitY=0.406;exitDx=0;exitDy=0;exitPerimeter=0;entryX=1;entryY=0.75;entryDx=0;entryDy=0;" edge="1" parent="1">
          <mxGeometry width="50" height="50" relative="1" as="geometry">
            <mxPoint x="254" y="256" as="sourcePoint" />
            <mxPoint x="230" y="210" as="targetPoint" />
            <Array as="points">
              <mxPoint x="274" y="247" />
              <mxPoint x="264" y="217" />
            </Array>
          </mxGeometry>
        </mxCell>
        <mxCell id="fdDKmjPF1dMZKq8-1kWD-27" value="" style="curved=1;endArrow=classic;html=1;rounded=0;exitX=1.02;exitY=0.406;exitDx=0;exitDy=0;exitPerimeter=0;entryX=1;entryY=0.75;entryDx=0;entryDy=0;" edge="1" parent="1">
          <mxGeometry width="50" height="50" relative="1" as="geometry">
            <mxPoint x="230" y="206" as="sourcePoint" />
            <mxPoint x="206" y="160" as="targetPoint" />
            <Array as="points">
              <mxPoint x="250" y="197" />
              <mxPoint x="240" y="167" />
            </Array>
          </mxGeometry>
        </mxCell>
        <mxCell id="fdDKmjPF1dMZKq8-1kWD-28" value="" style="curved=1;endArrow=classic;html=1;rounded=0;exitX=1.02;exitY=0.406;exitDx=0;exitDy=0;exitPerimeter=0;entryX=1;entryY=0.75;entryDx=0;entryDy=0;" edge="1" parent="1">
          <mxGeometry width="50" height="50" relative="1" as="geometry">
            <mxPoint x="210" y="156" as="sourcePoint" />
            <mxPoint x="186" y="110" as="targetPoint" />
            <Array as="points">
              <mxPoint x="230" y="147" />
              <mxPoint x="220" y="117" />
            </Array>
          </mxGeometry>
        </mxCell>
        <mxCell id="fdDKmjPF1dMZKq8-1kWD-29" value="return f(0) = 1" style="text;html=1;whiteSpace=wrap;overflow=hidden;rounded=0;" vertex="1" parent="1">
          <mxGeometry x="330" y="370" width="110" height="30" as="geometry" />
        </mxCell>
        <mxCell id="fdDKmjPF1dMZKq8-1kWD-30" value="return f(1) = 1" style="text;html=1;whiteSpace=wrap;overflow=hidden;rounded=0;" vertex="1" parent="1">
          <mxGeometry x="320" y="320" width="110" height="30" as="geometry" />
        </mxCell>
        <mxCell id="fdDKmjPF1dMZKq8-1kWD-31" value="return f(2) = 2" style="text;html=1;whiteSpace=wrap;overflow=hidden;rounded=0;" vertex="1" parent="1">
          <mxGeometry x="300" y="270" width="110" height="30" as="geometry" />
        </mxCell>
        <mxCell id="fdDKmjPF1dMZKq8-1kWD-32" value="return f(3) = 6" style="text;html=1;whiteSpace=wrap;overflow=hidden;rounded=0;" vertex="1" parent="1">
          <mxGeometry x="275.5" y="220" width="110" height="30" as="geometry" />
        </mxCell>
        <mxCell id="fdDKmjPF1dMZKq8-1kWD-33" value="return f(4) = 24" style="text;html=1;whiteSpace=wrap;overflow=hidden;rounded=0;" vertex="1" parent="1">
          <mxGeometry x="250" y="170" width="110" height="30" as="geometry" />
        </mxCell>
        <mxCell id="fdDKmjPF1dMZKq8-1kWD-34" value="return f(5) = 120" style="text;html=1;whiteSpace=wrap;overflow=hidden;rounded=0;" vertex="1" parent="1">
          <mxGeometry x="230" y="120" width="110" height="30" as="geometry" />
        </mxCell>
      </root>
    </mxGraphModel>
  </diagram>
  <diagram id="XvVsQ76_1uPZBe7zPegq" name="페이지-2">
    <mxGraphModel dx="841" dy="444" grid="1" gridSize="10" guides="1" tooltips="1" connect="1" arrows="1" fold="1" page="1" pageScale="1" pageWidth="1169" pageHeight="827" math="0" shadow="0">
      <root>
        <mxCell id="0" />
        <mxCell id="1" parent="0" />
        <mxCell id="QK6oTB5TR4VJjopjPzkX-2" value="f(5)" style="text;html=1;align=center;verticalAlign=middle;whiteSpace=wrap;rounded=0;fontSize=16;fontStyle=1" vertex="1" parent="1">
          <mxGeometry x="400" y="40" width="60" height="30" as="geometry" />
        </mxCell>
        <mxCell id="Quo8bgcZo2PXGug1fZXc-1" value="f(4) + f(3)" style="text;html=1;align=center;verticalAlign=middle;whiteSpace=wrap;rounded=0;fontSize=16;fontStyle=1" vertex="1" parent="1">
          <mxGeometry x="390" y="120" width="80" height="30" as="geometry" />
        </mxCell>
        <mxCell id="Quo8bgcZo2PXGug1fZXc-2" value="f(3) + f(2)" style="text;html=1;align=center;verticalAlign=middle;whiteSpace=wrap;rounded=0;fontSize=16;fontStyle=1" vertex="1" parent="1">
          <mxGeometry x="300" y="200" width="80" height="30" as="geometry" />
        </mxCell>
        <mxCell id="Quo8bgcZo2PXGug1fZXc-3" value="f(2) + f(1)" style="text;html=1;align=center;verticalAlign=middle;whiteSpace=wrap;rounded=0;fontSize=16;fontStyle=1" vertex="1" parent="1">
          <mxGeometry x="495" y="200" width="80" height="30" as="geometry" />
        </mxCell>
        <mxCell id="Quo8bgcZo2PXGug1fZXc-4" value="f(1) + f(0)" style="text;html=1;align=center;verticalAlign=middle;whiteSpace=wrap;rounded=0;fontSize=16;fontStyle=1" vertex="1" parent="1">
          <mxGeometry x="465" y="280" width="80" height="30" as="geometry" />
        </mxCell>
        <mxCell id="Quo8bgcZo2PXGug1fZXc-5" value="f(1) + f(0)" style="text;html=1;align=center;verticalAlign=middle;whiteSpace=wrap;rounded=0;fontSize=16;fontStyle=1" vertex="1" parent="1">
          <mxGeometry x="360" y="280" width="80" height="30" as="geometry" />
        </mxCell>
        <mxCell id="Quo8bgcZo2PXGug1fZXc-7" value="f(2) + f(1)" style="text;html=1;align=center;verticalAlign=middle;whiteSpace=wrap;rounded=0;fontSize=16;fontStyle=1" vertex="1" parent="1">
          <mxGeometry x="210" y="280" width="80" height="30" as="geometry" />
        </mxCell>
        <mxCell id="Quo8bgcZo2PXGug1fZXc-9" value="f(1) + f(0)" style="text;html=1;align=center;verticalAlign=middle;whiteSpace=wrap;rounded=0;fontSize=16;fontStyle=1" vertex="1" parent="1">
          <mxGeometry x="130" y="360" width="80" height="30" as="geometry" />
        </mxCell>
        <mxCell id="Quo8bgcZo2PXGug1fZXc-10" value="0" style="text;html=1;align=center;verticalAlign=middle;whiteSpace=wrap;rounded=0;fontSize=16;fontStyle=1" vertex="1" parent="1">
          <mxGeometry x="220" y="440" width="40" height="30" as="geometry" />
        </mxCell>
        <mxCell id="Quo8bgcZo2PXGug1fZXc-11" value="1" style="text;html=1;align=center;verticalAlign=middle;whiteSpace=wrap;rounded=0;fontSize=16;fontStyle=1" vertex="1" parent="1">
          <mxGeometry x="80" y="440" width="40" height="30" as="geometry" />
        </mxCell>
        <mxCell id="Quo8bgcZo2PXGug1fZXc-12" value="1" style="text;html=1;align=center;verticalAlign=middle;whiteSpace=wrap;rounded=0;fontSize=16;fontStyle=1" vertex="1" parent="1">
          <mxGeometry x="270" y="360" width="40" height="30" as="geometry" />
        </mxCell>
        <mxCell id="Quo8bgcZo2PXGug1fZXc-13" value="0" style="text;html=1;align=center;verticalAlign=middle;whiteSpace=wrap;rounded=0;fontSize=16;fontStyle=1" vertex="1" parent="1">
          <mxGeometry x="410" y="360" width="40" height="30" as="geometry" />
        </mxCell>
        <mxCell id="Quo8bgcZo2PXGug1fZXc-14" value="1" style="text;html=1;align=center;verticalAlign=middle;whiteSpace=wrap;rounded=0;fontSize=16;fontStyle=1" vertex="1" parent="1">
          <mxGeometry x="320" y="360" width="40" height="30" as="geometry" />
        </mxCell>
        <mxCell id="Quo8bgcZo2PXGug1fZXc-15" value="0" style="text;html=1;align=center;verticalAlign=middle;whiteSpace=wrap;rounded=0;fontSize=16;fontStyle=1" vertex="1" parent="1">
          <mxGeometry x="530" y="360" width="40" height="30" as="geometry" />
        </mxCell>
        <mxCell id="Quo8bgcZo2PXGug1fZXc-16" value="1" style="text;html=1;align=center;verticalAlign=middle;whiteSpace=wrap;rounded=0;fontSize=16;fontStyle=1" vertex="1" parent="1">
          <mxGeometry x="465" y="360" width="40" height="30" as="geometry" />
        </mxCell>
        <mxCell id="Quo8bgcZo2PXGug1fZXc-17" value="1" style="text;html=1;align=center;verticalAlign=middle;whiteSpace=wrap;rounded=0;fontSize=16;fontStyle=1" vertex="1" parent="1">
          <mxGeometry x="575" y="280" width="40" height="30" as="geometry" />
        </mxCell>
        <mxCell id="Quo8bgcZo2PXGug1fZXc-18" value="" style="curved=1;endArrow=classic;html=1;rounded=0;exitX=0.5;exitY=1;exitDx=0;exitDy=0;entryX=0.5;entryY=0;entryDx=0;entryDy=0;" edge="1" parent="1" source="QK6oTB5TR4VJjopjPzkX-2" target="Quo8bgcZo2PXGug1fZXc-1">
          <mxGeometry width="50" height="50" relative="1" as="geometry">
            <mxPoint x="320" y="110" as="sourcePoint" />
            <mxPoint x="370" y="60" as="targetPoint" />
            <Array as="points">
              <mxPoint x="410" y="90" />
            </Array>
          </mxGeometry>
        </mxCell>
        <mxCell id="Quo8bgcZo2PXGug1fZXc-19" value="" style="curved=1;endArrow=classic;html=1;rounded=0;exitX=0.5;exitY=1;exitDx=0;exitDy=0;entryX=0.5;entryY=0;entryDx=0;entryDy=0;" edge="1" parent="1" target="Quo8bgcZo2PXGug1fZXc-2">
          <mxGeometry width="50" height="50" relative="1" as="geometry">
            <mxPoint x="399.59000000000003" y="150" as="sourcePoint" />
            <mxPoint x="399.59000000000003" y="200" as="targetPoint" />
            <Array as="points">
              <mxPoint x="360" y="160" />
            </Array>
          </mxGeometry>
        </mxCell>
        <mxCell id="Quo8bgcZo2PXGug1fZXc-20" value="" style="curved=1;endArrow=classic;html=1;rounded=0;exitX=0.5;exitY=1;exitDx=0;exitDy=0;entryX=0.5;entryY=0;entryDx=0;entryDy=0;" edge="1" parent="1">
          <mxGeometry width="50" height="50" relative="1" as="geometry">
            <mxPoint x="309.8" y="230" as="sourcePoint" />
            <mxPoint x="250.20999999999998" y="280" as="targetPoint" />
            <Array as="points">
              <mxPoint x="270.21" y="240" />
            </Array>
          </mxGeometry>
        </mxCell>
        <mxCell id="Quo8bgcZo2PXGug1fZXc-21" value="" style="curved=1;endArrow=classic;html=1;rounded=0;exitX=0.5;exitY=1;exitDx=0;exitDy=0;entryX=0.5;entryY=0;entryDx=0;entryDy=0;" edge="1" parent="1">
          <mxGeometry width="50" height="50" relative="1" as="geometry">
            <mxPoint x="229.59000000000003" y="310" as="sourcePoint" />
            <mxPoint x="170" y="360" as="targetPoint" />
            <Array as="points">
              <mxPoint x="190" y="320" />
            </Array>
          </mxGeometry>
        </mxCell>
        <mxCell id="Quo8bgcZo2PXGug1fZXc-24" value="" style="curved=1;endArrow=classic;html=1;rounded=0;exitX=0.5;exitY=1;exitDx=0;exitDy=0;entryX=0.5;entryY=0;entryDx=0;entryDy=0;" edge="1" parent="1" target="Quo8bgcZo2PXGug1fZXc-11">
          <mxGeometry width="50" height="50" relative="1" as="geometry">
            <mxPoint x="149.8" y="390" as="sourcePoint" />
            <mxPoint x="149.8" y="440" as="targetPoint" />
            <Array as="points">
              <mxPoint x="110" y="410" />
            </Array>
          </mxGeometry>
        </mxCell>
        <mxCell id="Quo8bgcZo2PXGug1fZXc-25" value="" style="curved=1;endArrow=classic;html=1;rounded=0;exitX=0.5;exitY=1;exitDx=0;exitDy=0;entryX=0.5;entryY=0;entryDx=0;entryDy=0;" edge="1" parent="1" target="Quo8bgcZo2PXGug1fZXc-10">
          <mxGeometry width="50" height="50" relative="1" as="geometry">
            <mxPoint x="189.8" y="390" as="sourcePoint" />
            <mxPoint x="189.8" y="440" as="targetPoint" />
            <Array as="points">
              <mxPoint x="180" y="410" />
            </Array>
          </mxGeometry>
        </mxCell>
        <mxCell id="Quo8bgcZo2PXGug1fZXc-26" value="" style="curved=1;endArrow=classic;html=1;rounded=0;exitX=0.5;exitY=1;exitDx=0;exitDy=0;entryX=0.5;entryY=0;entryDx=0;entryDy=0;" edge="1" parent="1" target="Quo8bgcZo2PXGug1fZXc-12">
          <mxGeometry width="50" height="50" relative="1" as="geometry">
            <mxPoint x="269.8" y="310" as="sourcePoint" />
            <mxPoint x="269.8" y="360" as="targetPoint" />
            <Array as="points">
              <mxPoint x="260" y="330" />
            </Array>
          </mxGeometry>
        </mxCell>
        <mxCell id="Quo8bgcZo2PXGug1fZXc-29" value="" style="curved=1;endArrow=classic;html=1;rounded=0;exitX=0.5;exitY=1;exitDx=0;exitDy=0;entryX=0.5;entryY=0;entryDx=0;entryDy=0;" edge="1" parent="1" target="Quo8bgcZo2PXGug1fZXc-5">
          <mxGeometry width="50" height="50" relative="1" as="geometry">
            <mxPoint x="360" y="230" as="sourcePoint" />
            <mxPoint x="420.40999999999997" y="280" as="targetPoint" />
            <Array as="points">
              <mxPoint x="360" y="270" />
            </Array>
          </mxGeometry>
        </mxCell>
        <mxCell id="Quo8bgcZo2PXGug1fZXc-30" value="" style="curved=1;endArrow=classic;html=1;rounded=0;exitX=0.5;exitY=1;exitDx=0;exitDy=0;entryX=0.5;entryY=0;entryDx=0;entryDy=0;" edge="1" parent="1" target="Quo8bgcZo2PXGug1fZXc-4">
          <mxGeometry width="50" height="50" relative="1" as="geometry">
            <mxPoint x="514.8" y="230" as="sourcePoint" />
            <mxPoint x="455.21" y="280" as="targetPoint" />
            <Array as="points">
              <mxPoint x="500" y="250" />
            </Array>
          </mxGeometry>
        </mxCell>
        <mxCell id="Quo8bgcZo2PXGug1fZXc-33" value="" style="curved=1;endArrow=classic;html=1;rounded=0;exitX=0.5;exitY=1;exitDx=0;exitDy=0;entryX=0.5;entryY=0;entryDx=0;entryDy=0;" edge="1" parent="1" target="Quo8bgcZo2PXGug1fZXc-14">
          <mxGeometry width="50" height="50" relative="1" as="geometry">
            <mxPoint x="380" y="310" as="sourcePoint" />
            <mxPoint x="380" y="360" as="targetPoint" />
            <Array as="points">
              <mxPoint x="340" y="320" />
            </Array>
          </mxGeometry>
        </mxCell>
        <mxCell id="Quo8bgcZo2PXGug1fZXc-35" value="" style="curved=1;endArrow=classic;html=1;rounded=0;exitX=0.5;exitY=0;exitDx=0;exitDy=0;entryX=0.5;entryY=0;entryDx=0;entryDy=0;" edge="1" parent="1" source="Quo8bgcZo2PXGug1fZXc-11">
          <mxGeometry width="50" height="50" relative="1" as="geometry">
            <mxPoint x="150" y="439" as="sourcePoint" />
            <mxPoint x="150" y="389" as="targetPoint" />
            <Array as="points">
              <mxPoint x="160.2" y="419" />
            </Array>
          </mxGeometry>
        </mxCell>
        <mxCell id="Quo8bgcZo2PXGug1fZXc-37" value="" style="curved=1;endArrow=classic;html=1;rounded=0;exitX=0.5;exitY=0;exitDx=0;exitDy=0;entryX=0.5;entryY=0;entryDx=0;entryDy=0;" edge="1" parent="1" source="Quo8bgcZo2PXGug1fZXc-10">
          <mxGeometry width="50" height="50" relative="1" as="geometry">
            <mxPoint x="190" y="440" as="sourcePoint" />
            <mxPoint x="190" y="390" as="targetPoint" />
            <Array as="points">
              <mxPoint x="230" y="410" />
            </Array>
          </mxGeometry>
        </mxCell>
        <mxCell id="Quo8bgcZo2PXGug1fZXc-38" value="" style="curved=1;endArrow=classic;html=1;rounded=0;exitX=0.5;exitY=0;exitDx=0;exitDy=0;entryX=0.5;entryY=0;entryDx=0;entryDy=0;" edge="1" parent="1" source="Quo8bgcZo2PXGug1fZXc-12">
          <mxGeometry width="50" height="50" relative="1" as="geometry">
            <mxPoint x="270" y="360" as="sourcePoint" />
            <mxPoint x="270" y="310" as="targetPoint" />
            <Array as="points">
              <mxPoint x="300" y="330" />
            </Array>
          </mxGeometry>
        </mxCell>
        <mxCell id="Quo8bgcZo2PXGug1fZXc-39" value="" style="curved=1;endArrow=classic;html=1;rounded=0;exitX=0.5;exitY=0;exitDx=0;exitDy=0;entryX=0.5;entryY=0;entryDx=0;entryDy=0;" edge="1" parent="1" source="Quo8bgcZo2PXGug1fZXc-14">
          <mxGeometry width="50" height="50" relative="1" as="geometry">
            <mxPoint x="380" y="360" as="sourcePoint" />
            <mxPoint x="380" y="310" as="targetPoint" />
            <Array as="points">
              <mxPoint x="380" y="340" />
            </Array>
          </mxGeometry>
        </mxCell>
        <mxCell id="Quo8bgcZo2PXGug1fZXc-41" value="" style="curved=1;endArrow=classic;html=1;rounded=0;exitX=0.5;exitY=1;exitDx=0;exitDy=0;entryX=0.5;entryY=0;entryDx=0;entryDy=0;" edge="1" parent="1" target="Quo8bgcZo2PXGug1fZXc-13">
          <mxGeometry width="50" height="50" relative="1" as="geometry">
            <mxPoint x="419.8" y="310" as="sourcePoint" />
            <mxPoint x="419.8" y="360" as="targetPoint" />
            <Array as="points">
              <mxPoint x="410" y="340" />
            </Array>
          </mxGeometry>
        </mxCell>
        <mxCell id="Quo8bgcZo2PXGug1fZXc-42" value="" style="curved=1;endArrow=classic;html=1;rounded=0;exitX=0.5;exitY=0;exitDx=0;exitDy=0;entryX=0.5;entryY=0;entryDx=0;entryDy=0;" edge="1" parent="1" source="Quo8bgcZo2PXGug1fZXc-13">
          <mxGeometry width="50" height="50" relative="1" as="geometry">
            <mxPoint x="419.8" y="360" as="sourcePoint" />
            <mxPoint x="419.8" y="310" as="targetPoint" />
            <Array as="points">
              <mxPoint x="440" y="330" />
            </Array>
          </mxGeometry>
        </mxCell>
        <mxCell id="Quo8bgcZo2PXGug1fZXc-43" value="" style="curved=1;endArrow=classic;html=1;rounded=0;exitX=0.5;exitY=1;exitDx=0;exitDy=0;entryX=0.5;entryY=0;entryDx=0;entryDy=0;" edge="1" parent="1">
          <mxGeometry width="50" height="50" relative="1" as="geometry">
            <mxPoint x="484.8" y="310" as="sourcePoint" />
            <mxPoint x="484.8" y="360" as="targetPoint" />
            <Array as="points">
              <mxPoint x="475" y="330" />
            </Array>
          </mxGeometry>
        </mxCell>
        <mxCell id="Quo8bgcZo2PXGug1fZXc-44" value="" style="curved=1;endArrow=classic;html=1;rounded=0;exitX=0.5;exitY=1;exitDx=0;exitDy=0;entryX=0.5;entryY=0;entryDx=0;entryDy=0;" edge="1" parent="1">
          <mxGeometry width="50" height="50" relative="1" as="geometry">
            <mxPoint x="484.8" y="360" as="sourcePoint" />
            <mxPoint x="484.8" y="310" as="targetPoint" />
            <Array as="points">
              <mxPoint x="495" y="340" />
            </Array>
          </mxGeometry>
        </mxCell>
        <mxCell id="Quo8bgcZo2PXGug1fZXc-45" value="" style="curved=1;endArrow=classic;html=1;rounded=0;exitX=0.5;exitY=1;exitDx=0;exitDy=0;entryX=0.5;entryY=0;entryDx=0;entryDy=0;" edge="1" parent="1" target="Quo8bgcZo2PXGug1fZXc-15">
          <mxGeometry width="50" height="50" relative="1" as="geometry">
            <mxPoint x="524.8" y="310" as="sourcePoint" />
            <mxPoint x="524.8" y="360" as="targetPoint" />
            <Array as="points">
              <mxPoint x="520" y="340" />
            </Array>
          </mxGeometry>
        </mxCell>
        <mxCell id="Quo8bgcZo2PXGug1fZXc-46" value="" style="curved=1;endArrow=classic;html=1;rounded=0;exitX=0.5;exitY=0;exitDx=0;exitDy=0;entryX=0.5;entryY=0;entryDx=0;entryDy=0;" edge="1" parent="1" source="Quo8bgcZo2PXGug1fZXc-15">
          <mxGeometry width="50" height="50" relative="1" as="geometry">
            <mxPoint x="524.8" y="360" as="sourcePoint" />
            <mxPoint x="524.8" y="310" as="targetPoint" />
            <Array as="points">
              <mxPoint x="550" y="320" />
            </Array>
          </mxGeometry>
        </mxCell>
        <mxCell id="Quo8bgcZo2PXGug1fZXc-47" value="" style="curved=1;endArrow=classic;html=1;rounded=0;exitX=0.5;exitY=1;exitDx=0;exitDy=0;entryX=0.5;entryY=0;entryDx=0;entryDy=0;" edge="1" parent="1" target="Quo8bgcZo2PXGug1fZXc-17">
          <mxGeometry width="50" height="50" relative="1" as="geometry">
            <mxPoint x="554.8" y="230" as="sourcePoint" />
            <mxPoint x="554.8" y="280" as="targetPoint" />
            <Array as="points">
              <mxPoint x="545" y="250" />
            </Array>
          </mxGeometry>
        </mxCell>
        <mxCell id="Quo8bgcZo2PXGug1fZXc-48" value="" style="curved=1;endArrow=classic;html=1;rounded=0;exitX=0.5;exitY=0;exitDx=0;exitDy=0;entryX=0.5;entryY=0;entryDx=0;entryDy=0;" edge="1" parent="1" source="Quo8bgcZo2PXGug1fZXc-17">
          <mxGeometry width="50" height="50" relative="1" as="geometry">
            <mxPoint x="554.8" y="280" as="sourcePoint" />
            <mxPoint x="554.8" y="230" as="targetPoint" />
            <Array as="points">
              <mxPoint x="590" y="240" />
            </Array>
          </mxGeometry>
        </mxCell>
        <mxCell id="Quo8bgcZo2PXGug1fZXc-49" value="" style="curved=1;endArrow=classic;html=1;rounded=0;exitX=0.5;exitY=1;exitDx=0;exitDy=0;entryX=0.5;entryY=0;entryDx=0;entryDy=0;" edge="1" parent="1">
          <mxGeometry width="50" height="50" relative="1" as="geometry">
            <mxPoint x="340.41" y="200" as="sourcePoint" />
            <mxPoint x="400.00000000000006" y="150" as="targetPoint" />
            <Array as="points">
              <mxPoint x="390.41" y="190" />
            </Array>
          </mxGeometry>
        </mxCell>
        <mxCell id="Quo8bgcZo2PXGug1fZXc-51" value="" style="curved=1;endArrow=classic;html=1;rounded=0;exitX=0.5;exitY=1;exitDx=0;exitDy=0;entryX=0.5;entryY=0;entryDx=0;entryDy=0;" edge="1" parent="1">
          <mxGeometry width="50" height="50" relative="1" as="geometry">
            <mxPoint x="250.00000000000003" y="280" as="sourcePoint" />
            <mxPoint x="309.59000000000003" y="230" as="targetPoint" />
            <Array as="points">
              <mxPoint x="300" y="270" />
            </Array>
          </mxGeometry>
        </mxCell>
        <mxCell id="Quo8bgcZo2PXGug1fZXc-52" value="" style="curved=1;endArrow=classic;html=1;rounded=0;exitX=0.5;exitY=1;exitDx=0;exitDy=0;entryX=0.5;entryY=0;entryDx=0;entryDy=0;" edge="1" parent="1">
          <mxGeometry width="50" height="50" relative="1" as="geometry">
            <mxPoint x="170.00000000000003" y="360" as="sourcePoint" />
            <mxPoint x="229.59000000000006" y="310" as="targetPoint" />
            <Array as="points">
              <mxPoint x="220.00000000000003" y="350" />
            </Array>
          </mxGeometry>
        </mxCell>
        <mxCell id="Quo8bgcZo2PXGug1fZXc-53" value="" style="curved=1;endArrow=classic;html=1;rounded=0;exitX=0.5;exitY=1;exitDx=0;exitDy=0;entryX=0.5;entryY=0;entryDx=0;entryDy=0;" edge="1" parent="1">
          <mxGeometry width="50" height="50" relative="1" as="geometry">
            <mxPoint x="400" y="280" as="sourcePoint" />
            <mxPoint x="360" y="230" as="targetPoint" />
            <Array as="points">
              <mxPoint x="400" y="250" />
            </Array>
          </mxGeometry>
        </mxCell>
        <mxCell id="Quo8bgcZo2PXGug1fZXc-54" value="" style="curved=1;endArrow=classic;html=1;rounded=0;exitX=0.5;exitY=1;exitDx=0;exitDy=0;entryX=0.5;entryY=0;entryDx=0;entryDy=0;" edge="1" parent="1" target="Quo8bgcZo2PXGug1fZXc-3">
          <mxGeometry width="50" height="50" relative="1" as="geometry">
            <mxPoint x="449.79" y="150" as="sourcePoint" />
            <mxPoint x="510.20000000000005" y="200" as="targetPoint" />
            <Array as="points">
              <mxPoint x="459.99" y="190" />
            </Array>
          </mxGeometry>
        </mxCell>
        <mxCell id="Quo8bgcZo2PXGug1fZXc-55" value="" style="curved=1;endArrow=classic;html=1;rounded=0;exitX=0.5;exitY=0;exitDx=0;exitDy=0;entryX=0.5;entryY=0;entryDx=0;entryDy=0;" edge="1" parent="1" source="Quo8bgcZo2PXGug1fZXc-3">
          <mxGeometry width="50" height="50" relative="1" as="geometry">
            <mxPoint x="510.20000000000005" y="200" as="sourcePoint" />
            <mxPoint x="449.79" y="150" as="targetPoint" />
            <Array as="points">
              <mxPoint x="530" y="150" />
            </Array>
          </mxGeometry>
        </mxCell>
        <mxCell id="Quo8bgcZo2PXGug1fZXc-56" value="" style="curved=1;endArrow=classic;html=1;rounded=0;exitX=0.5;exitY=1;exitDx=0;exitDy=0;entryX=0.5;entryY=0;entryDx=0;entryDy=0;" edge="1" parent="1">
          <mxGeometry width="50" height="50" relative="1" as="geometry">
            <mxPoint x="430" y="120" as="sourcePoint" />
            <mxPoint x="430" y="70" as="targetPoint" />
            <Array as="points">
              <mxPoint x="450" y="90" />
            </Array>
          </mxGeometry>
        </mxCell>
        <mxCell id="Quo8bgcZo2PXGug1fZXc-57" value="call f(5)" style="text;html=1;align=center;verticalAlign=middle;whiteSpace=wrap;rounded=0;" vertex="1" parent="1">
          <mxGeometry x="360" y="80" width="60" height="30" as="geometry" />
        </mxCell>
        <mxCell id="Quo8bgcZo2PXGug1fZXc-58" value="call f(4)" style="text;html=1;align=center;verticalAlign=middle;whiteSpace=wrap;rounded=0;" vertex="1" parent="1">
          <mxGeometry x="300" y="140" width="60" height="30" as="geometry" />
        </mxCell>
        <mxCell id="Quo8bgcZo2PXGug1fZXc-59" value="call f(3)" style="text;html=1;align=center;verticalAlign=middle;whiteSpace=wrap;rounded=0;" vertex="1" parent="1">
          <mxGeometry x="220" y="220" width="60" height="30" as="geometry" />
        </mxCell>
        <mxCell id="Quo8bgcZo2PXGug1fZXc-60" value="call f(2)" style="text;html=1;align=center;verticalAlign=middle;whiteSpace=wrap;rounded=0;" vertex="1" parent="1">
          <mxGeometry x="140" y="300" width="60" height="30" as="geometry" />
        </mxCell>
        <mxCell id="Quo8bgcZo2PXGug1fZXc-61" value="call f(1)" style="text;html=1;align=center;verticalAlign=middle;whiteSpace=wrap;rounded=0;" vertex="1" parent="1">
          <mxGeometry x="60" y="390" width="60" height="30" as="geometry" />
        </mxCell>
        <mxCell id="Quo8bgcZo2PXGug1fZXc-62" value="call f(0)" style="text;html=1;align=center;verticalAlign=middle;whiteSpace=wrap;rounded=0;" vertex="1" parent="1">
          <mxGeometry x="170" y="420" width="60" height="30" as="geometry" />
        </mxCell>
        <mxCell id="Quo8bgcZo2PXGug1fZXc-64" value="call f(1)" style="text;html=1;align=center;verticalAlign=middle;whiteSpace=wrap;rounded=0;" vertex="1" parent="1">
          <mxGeometry x="220" y="330" width="60" height="30" as="geometry" />
        </mxCell>
        <mxCell id="Quo8bgcZo2PXGug1fZXc-65" value="call f(1)" style="text;html=1;align=center;verticalAlign=middle;whiteSpace=wrap;rounded=0;" vertex="1" parent="1">
          <mxGeometry x="300" y="300" width="60" height="30" as="geometry" />
        </mxCell>
        <mxCell id="Quo8bgcZo2PXGug1fZXc-68" value="call f(0)" style="text;html=1;align=center;verticalAlign=middle;whiteSpace=wrap;rounded=0;" vertex="1" parent="1">
          <mxGeometry x="370" y="340" width="60" height="30" as="geometry" />
        </mxCell>
        <mxCell id="Quo8bgcZo2PXGug1fZXc-69" value="call f(0)" style="text;html=1;align=center;verticalAlign=middle;whiteSpace=wrap;rounded=0;" vertex="1" parent="1">
          <mxGeometry x="485" y="340" width="60" height="30" as="geometry" />
        </mxCell>
        <mxCell id="Quo8bgcZo2PXGug1fZXc-70" value="call f(1)" style="text;html=1;align=center;verticalAlign=middle;whiteSpace=wrap;rounded=0;" vertex="1" parent="1">
          <mxGeometry x="425" y="300" width="60" height="30" as="geometry" />
        </mxCell>
        <mxCell id="Quo8bgcZo2PXGug1fZXc-71" value="" style="curved=1;endArrow=classic;html=1;rounded=0;exitX=0.5;exitY=1;exitDx=0;exitDy=0;entryX=0.5;entryY=0;entryDx=0;entryDy=0;" edge="1" parent="1">
          <mxGeometry width="50" height="50" relative="1" as="geometry">
            <mxPoint x="505" y="280" as="sourcePoint" />
            <mxPoint x="514.8" y="230" as="targetPoint" />
            <Array as="points">
              <mxPoint x="530" y="250" />
            </Array>
          </mxGeometry>
        </mxCell>
        <mxCell id="Quo8bgcZo2PXGug1fZXc-72" value="call f(2)" style="text;html=1;align=center;verticalAlign=middle;whiteSpace=wrap;rounded=0;" vertex="1" parent="1">
          <mxGeometry x="450" y="220" width="60" height="30" as="geometry" />
        </mxCell>
        <mxCell id="Quo8bgcZo2PXGug1fZXc-73" value="call f(3)" style="text;html=1;align=center;verticalAlign=middle;whiteSpace=wrap;rounded=0;" vertex="1" parent="1">
          <mxGeometry x="410" y="160" width="60" height="30" as="geometry" />
        </mxCell>
        <mxCell id="Quo8bgcZo2PXGug1fZXc-74" value="call f(2)" style="text;html=1;align=center;verticalAlign=middle;whiteSpace=wrap;rounded=0;" vertex="1" parent="1">
          <mxGeometry x="320" y="250" width="60" height="30" as="geometry" />
        </mxCell>
        <mxCell id="Quo8bgcZo2PXGug1fZXc-75" value="call f(1)" style="text;html=1;align=center;verticalAlign=middle;whiteSpace=wrap;rounded=0;" vertex="1" parent="1">
          <mxGeometry x="525" y="260" width="60" height="30" as="geometry" />
        </mxCell>
        <mxCell id="Quo8bgcZo2PXGug1fZXc-76" value="0" style="text;html=1;align=center;verticalAlign=middle;whiteSpace=wrap;rounded=0;" vertex="1" parent="1">
          <mxGeometry x="200" y="380" width="40" height="30" as="geometry" />
        </mxCell>
        <mxCell id="Quo8bgcZo2PXGug1fZXc-77" value="1" style="text;html=1;align=center;verticalAlign=middle;whiteSpace=wrap;rounded=0;" vertex="1" parent="1">
          <mxGeometry x="120" y="420" width="40" height="30" as="geometry" />
        </mxCell>
        <mxCell id="Quo8bgcZo2PXGug1fZXc-78" value="1" style="text;html=1;align=center;verticalAlign=middle;whiteSpace=wrap;rounded=0;" vertex="1" parent="1">
          <mxGeometry x="370" y="320" width="40" height="30" as="geometry" />
        </mxCell>
        <mxCell id="Quo8bgcZo2PXGug1fZXc-79" value="1" style="text;html=1;align=center;verticalAlign=middle;whiteSpace=wrap;rounded=0;" vertex="1" parent="1">
          <mxGeometry x="280" y="320" width="40" height="30" as="geometry" />
        </mxCell>
        <mxCell id="Quo8bgcZo2PXGug1fZXc-81" value="1" style="text;html=1;align=center;verticalAlign=middle;whiteSpace=wrap;rounded=0;" vertex="1" parent="1">
          <mxGeometry x="200" y="340" width="40" height="30" as="geometry" />
        </mxCell>
        <mxCell id="Quo8bgcZo2PXGug1fZXc-82" value="2" style="text;html=1;align=center;verticalAlign=middle;whiteSpace=wrap;rounded=0;" vertex="1" parent="1">
          <mxGeometry x="280" y="250" width="40" height="30" as="geometry" />
        </mxCell>
        <mxCell id="Quo8bgcZo2PXGug1fZXc-83" value="1" style="text;html=1;align=center;verticalAlign=middle;whiteSpace=wrap;rounded=0;" vertex="1" parent="1">
          <mxGeometry x="385" y="230" width="40" height="30" as="geometry" />
        </mxCell>
        <mxCell id="Quo8bgcZo2PXGug1fZXc-84" value="1" style="text;html=1;align=center;verticalAlign=middle;whiteSpace=wrap;rounded=0;" vertex="1" parent="1">
          <mxGeometry x="480" y="320" width="40" height="30" as="geometry" />
        </mxCell>
        <mxCell id="Quo8bgcZo2PXGug1fZXc-85" value="0" style="text;html=1;align=center;verticalAlign=middle;whiteSpace=wrap;rounded=0;" vertex="1" parent="1">
          <mxGeometry x="535" y="310" width="40" height="30" as="geometry" />
        </mxCell>
        <mxCell id="Quo8bgcZo2PXGug1fZXc-86" value="1" style="text;html=1;align=center;verticalAlign=middle;whiteSpace=wrap;rounded=0;" vertex="1" parent="1">
          <mxGeometry x="575" y="230" width="40" height="30" as="geometry" />
        </mxCell>
        <mxCell id="Quo8bgcZo2PXGug1fZXc-87" value="1" style="text;html=1;align=center;verticalAlign=middle;whiteSpace=wrap;rounded=0;" vertex="1" parent="1">
          <mxGeometry x="510" y="240" width="40" height="30" as="geometry" />
        </mxCell>
        <mxCell id="Quo8bgcZo2PXGug1fZXc-88" value="2" style="text;html=1;align=center;verticalAlign=middle;whiteSpace=wrap;rounded=0;" vertex="1" parent="1">
          <mxGeometry x="505" y="140" width="40" height="30" as="geometry" />
        </mxCell>
        <mxCell id="Quo8bgcZo2PXGug1fZXc-89" value="3" style="text;html=1;align=center;verticalAlign=middle;whiteSpace=wrap;rounded=0;" vertex="1" parent="1">
          <mxGeometry x="380" y="170" width="40" height="30" as="geometry" />
        </mxCell>
        <mxCell id="Quo8bgcZo2PXGug1fZXc-90" value="5" style="text;html=1;align=center;verticalAlign=middle;whiteSpace=wrap;rounded=0;" vertex="1" parent="1">
          <mxGeometry x="430" y="80" width="40" height="30" as="geometry" />
        </mxCell>
      </root>
    </mxGraphModel>
  </diagram>
  <diagram id="qG7Kjq8I37CTZdr9l1s3" name="페이지-3">
    <mxGraphModel dx="1063" dy="915" grid="1" gridSize="10" guides="1" tooltips="1" connect="1" arrows="1" fold="1" page="1" pageScale="1" pageWidth="1169" pageHeight="827" math="0" shadow="0">
      <root>
        <mxCell id="0" />
        <mxCell id="1" parent="0" />
        <mxCell id="Iugo6JfqCcZ-t4NfalxN-1" value="1" style="text;html=1;align=center;verticalAlign=middle;whiteSpace=wrap;rounded=0;fontSize=16;fontStyle=1" vertex="1" parent="1">
          <mxGeometry x="320" y="80" width="30" height="30" as="geometry" />
        </mxCell>
        <mxCell id="Iugo6JfqCcZ-t4NfalxN-2" value="1" style="text;html=1;align=center;verticalAlign=middle;whiteSpace=wrap;rounded=0;fontSize=16;fontStyle=1" vertex="1" parent="1">
          <mxGeometry x="350" y="110" width="30" height="30" as="geometry" />
        </mxCell>
        <mxCell id="Iugo6JfqCcZ-t4NfalxN-3" value="1" style="text;html=1;align=center;verticalAlign=middle;whiteSpace=wrap;rounded=0;fontSize=16;fontStyle=1" vertex="1" parent="1">
          <mxGeometry x="380" y="140" width="30" height="30" as="geometry" />
        </mxCell>
        <mxCell id="Iugo6JfqCcZ-t4NfalxN-4" value="1" style="text;html=1;align=center;verticalAlign=middle;whiteSpace=wrap;rounded=0;fontSize=16;fontStyle=1" vertex="1" parent="1">
          <mxGeometry x="410" y="170" width="30" height="30" as="geometry" />
        </mxCell>
        <mxCell id="Iugo6JfqCcZ-t4NfalxN-5" value="1" style="text;html=1;align=center;verticalAlign=middle;whiteSpace=wrap;rounded=0;fontSize=16;fontStyle=1" vertex="1" parent="1">
          <mxGeometry x="470" y="230" width="30" height="30" as="geometry" />
        </mxCell>
        <mxCell id="Iugo6JfqCcZ-t4NfalxN-6" value="1" style="text;html=1;align=center;verticalAlign=middle;whiteSpace=wrap;rounded=0;fontSize=16;fontStyle=1" vertex="1" parent="1">
          <mxGeometry x="440" y="200" width="30" height="30" as="geometry" />
        </mxCell>
        <mxCell id="Iugo6JfqCcZ-t4NfalxN-7" value="1" style="text;html=1;align=center;verticalAlign=middle;whiteSpace=wrap;rounded=0;fontSize=16;fontStyle=1" vertex="1" parent="1">
          <mxGeometry x="290" y="110" width="30" height="30" as="geometry" />
        </mxCell>
        <mxCell id="Iugo6JfqCcZ-t4NfalxN-8" value="1" style="text;html=1;align=center;verticalAlign=middle;whiteSpace=wrap;rounded=0;fontSize=16;fontStyle=1" vertex="1" parent="1">
          <mxGeometry x="260" y="140" width="30" height="30" as="geometry" />
        </mxCell>
        <mxCell id="Iugo6JfqCcZ-t4NfalxN-10" value="1" style="text;html=1;align=center;verticalAlign=middle;whiteSpace=wrap;rounded=0;fontSize=16;fontStyle=1" vertex="1" parent="1">
          <mxGeometry x="230" y="170" width="30" height="30" as="geometry" />
        </mxCell>
        <mxCell id="Iugo6JfqCcZ-t4NfalxN-11" value="1" style="text;html=1;align=center;verticalAlign=middle;whiteSpace=wrap;rounded=0;fontSize=16;fontStyle=1" vertex="1" parent="1">
          <mxGeometry x="200" y="200" width="30" height="30" as="geometry" />
        </mxCell>
        <mxCell id="Iugo6JfqCcZ-t4NfalxN-12" value="1" style="text;html=1;align=center;verticalAlign=middle;whiteSpace=wrap;rounded=0;fontSize=16;fontStyle=1" vertex="1" parent="1">
          <mxGeometry x="170" y="230" width="30" height="30" as="geometry" />
        </mxCell>
        <mxCell id="Iugo6JfqCcZ-t4NfalxN-13" value="2" style="text;html=1;align=center;verticalAlign=middle;whiteSpace=wrap;rounded=0;fontSize=16;fontStyle=1" vertex="1" parent="1">
          <mxGeometry x="320" y="140" width="30" height="30" as="geometry" />
        </mxCell>
        <mxCell id="Iugo6JfqCcZ-t4NfalxN-14" value="3" style="text;html=1;align=center;verticalAlign=middle;whiteSpace=wrap;rounded=0;fontSize=16;fontStyle=1" vertex="1" parent="1">
          <mxGeometry x="290" y="170" width="30" height="30" as="geometry" />
        </mxCell>
        <mxCell id="Iugo6JfqCcZ-t4NfalxN-15" value="3" style="text;html=1;align=center;verticalAlign=middle;whiteSpace=wrap;rounded=0;fontSize=16;fontStyle=1" vertex="1" parent="1">
          <mxGeometry x="350" y="170" width="30" height="30" as="geometry" />
        </mxCell>
        <mxCell id="Iugo6JfqCcZ-t4NfalxN-16" value="4" style="text;html=1;align=center;verticalAlign=middle;whiteSpace=wrap;rounded=0;fontSize=16;fontStyle=1" vertex="1" parent="1">
          <mxGeometry x="260" y="200" width="30" height="30" as="geometry" />
        </mxCell>
        <mxCell id="Iugo6JfqCcZ-t4NfalxN-17" value="5" style="text;html=1;align=center;verticalAlign=middle;whiteSpace=wrap;rounded=0;fontSize=16;fontStyle=1" vertex="1" parent="1">
          <mxGeometry x="230" y="230" width="30" height="30" as="geometry" />
        </mxCell>
        <mxCell id="Iugo6JfqCcZ-t4NfalxN-20" value="1" style="text;html=1;align=center;verticalAlign=middle;whiteSpace=wrap;rounded=0;fontSize=16;fontStyle=1" vertex="1" parent="1">
          <mxGeometry x="140" y="260" width="30" height="30" as="geometry" />
        </mxCell>
        <mxCell id="Iugo6JfqCcZ-t4NfalxN-21" value="6" style="text;html=1;align=center;verticalAlign=middle;whiteSpace=wrap;rounded=0;fontSize=16;fontStyle=1" vertex="1" parent="1">
          <mxGeometry x="200" y="260" width="30" height="30" as="geometry" />
        </mxCell>
        <mxCell id="Iugo6JfqCcZ-t4NfalxN-22" value="4" style="text;html=1;align=center;verticalAlign=middle;whiteSpace=wrap;rounded=0;fontSize=16;fontStyle=1" vertex="1" parent="1">
          <mxGeometry x="380" y="200" width="30" height="30" as="geometry" />
        </mxCell>
        <mxCell id="Iugo6JfqCcZ-t4NfalxN-23" value="5" style="text;html=1;align=center;verticalAlign=middle;whiteSpace=wrap;rounded=0;fontSize=16;fontStyle=1" vertex="1" parent="1">
          <mxGeometry x="410" y="230" width="30" height="30" as="geometry" />
        </mxCell>
        <mxCell id="Iugo6JfqCcZ-t4NfalxN-24" value="1" style="text;html=1;align=center;verticalAlign=middle;whiteSpace=wrap;rounded=0;fontSize=16;fontStyle=1" vertex="1" parent="1">
          <mxGeometry x="500" y="260" width="30" height="30" as="geometry" />
        </mxCell>
        <mxCell id="Iugo6JfqCcZ-t4NfalxN-25" value="6" style="text;html=1;align=center;verticalAlign=middle;whiteSpace=wrap;rounded=0;fontSize=16;fontStyle=1" vertex="1" parent="1">
          <mxGeometry x="440" y="260" width="30" height="30" as="geometry" />
        </mxCell>
        <mxCell id="Iugo6JfqCcZ-t4NfalxN-26" value="6" style="text;html=1;align=center;verticalAlign=middle;whiteSpace=wrap;rounded=0;fontSize=16;fontStyle=1" vertex="1" parent="1">
          <mxGeometry x="320" y="200" width="30" height="30" as="geometry" />
        </mxCell>
        <mxCell id="Iugo6JfqCcZ-t4NfalxN-27" value="10" style="text;html=1;align=center;verticalAlign=middle;whiteSpace=wrap;rounded=0;fontSize=16;fontStyle=1" vertex="1" parent="1">
          <mxGeometry x="290" y="230" width="30" height="30" as="geometry" />
        </mxCell>
        <mxCell id="Iugo6JfqCcZ-t4NfalxN-28" value="10" style="text;html=1;align=center;verticalAlign=middle;whiteSpace=wrap;rounded=0;fontSize=16;fontStyle=1" vertex="1" parent="1">
          <mxGeometry x="350" y="230" width="30" height="30" as="geometry" />
        </mxCell>
        <mxCell id="Iugo6JfqCcZ-t4NfalxN-29" value="20" style="text;html=1;align=center;verticalAlign=middle;whiteSpace=wrap;rounded=0;fontSize=16;fontStyle=1" vertex="1" parent="1">
          <mxGeometry x="320" y="260" width="30" height="30" as="geometry" />
        </mxCell>
        <mxCell id="Iugo6JfqCcZ-t4NfalxN-30" value="15" style="text;html=1;align=center;verticalAlign=middle;whiteSpace=wrap;rounded=0;fontSize=16;fontStyle=1" vertex="1" parent="1">
          <mxGeometry x="260" y="260" width="30" height="30" as="geometry" />
        </mxCell>
        <mxCell id="Iugo6JfqCcZ-t4NfalxN-31" value="15" style="text;html=1;align=center;verticalAlign=middle;whiteSpace=wrap;rounded=0;fontSize=16;fontStyle=1" vertex="1" parent="1">
          <mxGeometry x="380" y="260" width="30" height="30" as="geometry" />
        </mxCell>
        <mxCell id="Iugo6JfqCcZ-t4NfalxN-32" value="" style="rounded=0;whiteSpace=wrap;html=1;rotation=-45;fillColor=#f5f5f5;fontColor=#333333;strokeColor=none;gradientColor=none;opacity=60;fontSize=16;fontStyle=1" vertex="1" parent="1">
          <mxGeometry x="200" y="210" width="254.39" height="30" as="geometry" />
        </mxCell>
        <mxCell id="Iugo6JfqCcZ-t4NfalxN-33" value="" style="rounded=0;whiteSpace=wrap;html=1;rotation=0;fillColor=#f5f5f5;fontColor=#333333;strokeColor=none;gradientColor=none;opacity=60;fontSize=16;fontStyle=1" vertex="1" parent="1">
          <mxGeometry x="125.61" y="260" width="424.39" height="30" as="geometry" />
        </mxCell>
        <mxCell id="Iugo6JfqCcZ-t4NfalxN-34" value="Column 2" style="text;html=1;align=center;verticalAlign=middle;whiteSpace=wrap;rounded=0;fontSize=16;fontStyle=1" vertex="1" parent="1">
          <mxGeometry x="440" y="90" width="80.39" height="30" as="geometry" />
        </mxCell>
        <mxCell id="Iugo6JfqCcZ-t4NfalxN-35" value="Row 6" style="text;html=1;align=center;verticalAlign=middle;whiteSpace=wrap;rounded=0;fontSize=16;fontStyle=1" vertex="1" parent="1">
          <mxGeometry x="40" y="260" width="60" height="30" as="geometry" />
        </mxCell>
        <mxCell id="Iugo6JfqCcZ-t4NfalxN-37" value="" style="endArrow=classic;html=1;rounded=0;exitX=1;exitY=0.5;exitDx=0;exitDy=0;entryX=0;entryY=0.5;entryDx=0;entryDy=0;fontSize=16;fontStyle=1" edge="1" parent="1" source="Iugo6JfqCcZ-t4NfalxN-35" target="Iugo6JfqCcZ-t4NfalxN-33">
          <mxGeometry width="50" height="50" relative="1" as="geometry">
            <mxPoint x="20" y="180" as="sourcePoint" />
            <mxPoint x="150" y="250" as="targetPoint" />
          </mxGeometry>
        </mxCell>
        <mxCell id="Iugo6JfqCcZ-t4NfalxN-38" value="" style="endArrow=classic;html=1;rounded=0;exitX=0;exitY=0.5;exitDx=0;exitDy=0;entryX=1;entryY=0.5;entryDx=0;entryDy=0;fontSize=16;fontStyle=1" edge="1" parent="1" source="Iugo6JfqCcZ-t4NfalxN-34" target="Iugo6JfqCcZ-t4NfalxN-32">
          <mxGeometry width="50" height="50" relative="1" as="geometry">
            <mxPoint x="420" y="70" as="sourcePoint" />
            <mxPoint x="470" y="20" as="targetPoint" />
          </mxGeometry>
        </mxCell>
        <mxCell id="Iugo6JfqCcZ-t4NfalxN-39" value="" style="ellipse;whiteSpace=wrap;html=1;aspect=fixed;fillColor=none;" vertex="1" parent="1">
          <mxGeometry x="255" y="255" width="40" height="40" as="geometry" />
        </mxCell>
      </root>
    </mxGraphModel>
  </diagram>
  <diagram id="i9MfpfmDHOHQo6cwPWKu" name="유클리드 예제">
    <mxGraphModel dx="434" dy="373" grid="1" gridSize="10" guides="1" tooltips="1" connect="1" arrows="1" fold="1" page="1" pageScale="1" pageWidth="1169" pageHeight="827" math="0" shadow="0">
      <root>
        <mxCell id="0" />
        <mxCell id="1" parent="0" />
        <mxCell id="xzUSoQC6StHIsZGvNG77-1" value="494" style="text;html=1;align=right;verticalAlign=middle;whiteSpace=wrap;rounded=0;fontSize=16;fontStyle=1" vertex="1" parent="1">
          <mxGeometry x="380" y="60" width="60" height="20" as="geometry" />
        </mxCell>
        <mxCell id="xzUSoQC6StHIsZGvNG77-2" value="-130" style="text;html=1;align=right;verticalAlign=middle;whiteSpace=wrap;rounded=0;fontSize=16;fontStyle=1" vertex="1" parent="1">
          <mxGeometry x="380" y="80" width="60" height="20" as="geometry" />
        </mxCell>
        <mxCell id="xzUSoQC6StHIsZGvNG77-3" value="364" style="text;html=1;align=right;verticalAlign=middle;whiteSpace=wrap;rounded=0;fontSize=16;fontStyle=1" vertex="1" parent="1">
          <mxGeometry x="380" y="100" width="60" height="20" as="geometry" />
        </mxCell>
        <mxCell id="xzUSoQC6StHIsZGvNG77-4" value="-130" style="text;html=1;align=right;verticalAlign=middle;whiteSpace=wrap;rounded=0;fontSize=16;fontStyle=1" vertex="1" parent="1">
          <mxGeometry x="380" y="120" width="60" height="20" as="geometry" />
        </mxCell>
        <mxCell id="xzUSoQC6StHIsZGvNG77-5" value="234" style="text;html=1;align=right;verticalAlign=middle;whiteSpace=wrap;rounded=0;fontSize=16;fontStyle=1" vertex="1" parent="1">
          <mxGeometry x="380" y="140" width="60" height="20" as="geometry" />
        </mxCell>
        <mxCell id="xzUSoQC6StHIsZGvNG77-6" value="-130" style="text;html=1;align=right;verticalAlign=middle;whiteSpace=wrap;rounded=0;fontSize=16;fontStyle=1" vertex="1" parent="1">
          <mxGeometry x="380" y="160" width="60" height="20" as="geometry" />
        </mxCell>
        <mxCell id="xzUSoQC6StHIsZGvNG77-7" value="104" style="text;html=1;align=right;verticalAlign=middle;whiteSpace=wrap;rounded=0;fontSize=16;fontStyle=1" vertex="1" parent="1">
          <mxGeometry x="400" y="180" width="40" height="20" as="geometry" />
        </mxCell>
        <mxCell id="xzUSoQC6StHIsZGvNG77-8" value="130" style="text;html=1;align=right;verticalAlign=middle;whiteSpace=wrap;rounded=0;fontSize=16;fontStyle=1" vertex="1" parent="1">
          <mxGeometry x="440" y="160" width="40" height="20" as="geometry" />
        </mxCell>
        <mxCell id="xzUSoQC6StHIsZGvNG77-9" value="-104" style="text;html=1;align=right;verticalAlign=middle;whiteSpace=wrap;rounded=0;fontSize=16;fontStyle=1" vertex="1" parent="1">
          <mxGeometry x="440" y="180" width="40" height="20" as="geometry" />
        </mxCell>
        <mxCell id="xzUSoQC6StHIsZGvNG77-10" value="26" style="text;html=1;align=right;verticalAlign=middle;whiteSpace=wrap;rounded=0;fontSize=16;fontStyle=1" vertex="1" parent="1">
          <mxGeometry x="440" y="200" width="40" height="20" as="geometry" />
        </mxCell>
        <mxCell id="xzUSoQC6StHIsZGvNG77-11" value="104" style="text;html=1;align=right;verticalAlign=middle;whiteSpace=wrap;rounded=0;fontSize=16;fontStyle=1" vertex="1" parent="1">
          <mxGeometry x="490" y="180" width="30" height="20" as="geometry" />
        </mxCell>
        <mxCell id="xzUSoQC6StHIsZGvNG77-12" value="-26" style="text;html=1;align=right;verticalAlign=middle;whiteSpace=wrap;rounded=0;fontSize=16;fontStyle=1" vertex="1" parent="1">
          <mxGeometry x="490" y="200" width="30" height="20" as="geometry" />
        </mxCell>
        <mxCell id="xzUSoQC6StHIsZGvNG77-13" value="-26" style="text;html=1;align=right;verticalAlign=middle;whiteSpace=wrap;rounded=0;fontSize=16;fontStyle=1" vertex="1" parent="1">
          <mxGeometry x="490" y="240" width="30" height="20" as="geometry" />
        </mxCell>
        <mxCell id="xzUSoQC6StHIsZGvNG77-14" value="78" style="text;html=1;align=right;verticalAlign=middle;whiteSpace=wrap;rounded=0;fontSize=16;fontStyle=1" vertex="1" parent="1">
          <mxGeometry x="490" y="220" width="30" height="20" as="geometry" />
        </mxCell>
        <mxCell id="xzUSoQC6StHIsZGvNG77-15" value="52" style="text;html=1;align=right;verticalAlign=middle;whiteSpace=wrap;rounded=0;fontSize=16;fontStyle=1" vertex="1" parent="1">
          <mxGeometry x="490" y="260" width="30" height="20" as="geometry" />
        </mxCell>
        <mxCell id="xzUSoQC6StHIsZGvNG77-16" value="-26" style="text;html=1;align=right;verticalAlign=middle;whiteSpace=wrap;rounded=0;fontSize=16;fontStyle=1" vertex="1" parent="1">
          <mxGeometry x="490" y="280" width="30" height="20" as="geometry" />
        </mxCell>
        <mxCell id="xzUSoQC6StHIsZGvNG77-19" value="" style="endArrow=none;html=1;rounded=0;entryX=0;entryY=0.5;entryDx=0;entryDy=0;" edge="1" parent="1">
          <mxGeometry width="50" height="50" relative="1" as="geometry">
            <mxPoint x="480" y="220" as="sourcePoint" />
            <mxPoint x="520" y="220" as="targetPoint" />
          </mxGeometry>
        </mxCell>
        <mxCell id="xzUSoQC6StHIsZGvNG77-20" value="" style="endArrow=none;html=1;rounded=0;entryX=0;entryY=0.5;entryDx=0;entryDy=0;" edge="1" parent="1">
          <mxGeometry width="50" height="50" relative="1" as="geometry">
            <mxPoint x="400" y="100" as="sourcePoint" />
            <mxPoint x="440" y="100" as="targetPoint" />
          </mxGeometry>
        </mxCell>
        <mxCell id="xzUSoQC6StHIsZGvNG77-21" value="" style="endArrow=none;html=1;rounded=0;entryX=0;entryY=0.5;entryDx=0;entryDy=0;" edge="1" parent="1">
          <mxGeometry width="50" height="50" relative="1" as="geometry">
            <mxPoint x="400" y="139.59" as="sourcePoint" />
            <mxPoint x="440" y="139.59" as="targetPoint" />
          </mxGeometry>
        </mxCell>
        <mxCell id="xzUSoQC6StHIsZGvNG77-22" value="" style="endArrow=none;html=1;rounded=0;entryX=0;entryY=0.5;entryDx=0;entryDy=0;" edge="1" parent="1">
          <mxGeometry width="50" height="50" relative="1" as="geometry">
            <mxPoint x="400" y="179.59" as="sourcePoint" />
            <mxPoint x="440" y="179.59" as="targetPoint" />
          </mxGeometry>
        </mxCell>
        <mxCell id="xzUSoQC6StHIsZGvNG77-23" value="" style="endArrow=none;html=1;rounded=0;entryX=0;entryY=0.5;entryDx=0;entryDy=0;" edge="1" parent="1">
          <mxGeometry width="50" height="50" relative="1" as="geometry">
            <mxPoint x="440" y="200" as="sourcePoint" />
            <mxPoint x="480" y="200" as="targetPoint" />
          </mxGeometry>
        </mxCell>
        <mxCell id="xzUSoQC6StHIsZGvNG77-25" value="" style="endArrow=none;html=1;rounded=0;entryX=0;entryY=0.5;entryDx=0;entryDy=0;" edge="1" parent="1">
          <mxGeometry width="50" height="50" relative="1" as="geometry">
            <mxPoint x="480" y="260" as="sourcePoint" />
            <mxPoint x="520" y="260" as="targetPoint" />
          </mxGeometry>
        </mxCell>
        <mxCell id="xzUSoQC6StHIsZGvNG77-26" value="" style="endArrow=none;html=1;rounded=0;entryX=0;entryY=0.5;entryDx=0;entryDy=0;" edge="1" parent="1">
          <mxGeometry width="50" height="50" relative="1" as="geometry">
            <mxPoint x="480" y="300" as="sourcePoint" />
            <mxPoint x="520" y="300" as="targetPoint" />
          </mxGeometry>
        </mxCell>
        <mxCell id="xzUSoQC6StHIsZGvNG77-27" value="26" style="text;html=1;align=right;verticalAlign=middle;whiteSpace=wrap;rounded=0;fontSize=16;fontStyle=1" vertex="1" parent="1">
          <mxGeometry x="490" y="300" width="30" height="20" as="geometry" />
        </mxCell>
      </root>
    </mxGraphModel>
  </diagram>
  <diagram id="dJgdaNwpSztvQE-cmShh" name="Hanoi Tower">
    <mxGraphModel dx="1304" dy="763" grid="1" gridSize="10" guides="1" tooltips="1" connect="1" arrows="1" fold="1" page="1" pageScale="1" pageWidth="1169" pageHeight="827" math="0" shadow="0">
      <root>
        <mxCell id="0" />
        <mxCell id="1" parent="0" />
        <mxCell id="moYprUT44ZE071w_t-Pb-6" value="" style="rounded=0;whiteSpace=wrap;html=1;fillColor=#f5f5f5;fontColor=#333333;strokeColor=#666666;" vertex="1" parent="1">
          <mxGeometry x="380" y="400" width="10" height="100" as="geometry" />
        </mxCell>
        <mxCell id="moYprUT44ZE071w_t-Pb-1" value="" style="rounded=0;whiteSpace=wrap;html=1;fillColor=#f5f5f5;fontColor=#333333;strokeColor=#666666;" vertex="1" parent="1">
          <mxGeometry x="280" y="500" width="530" height="10" as="geometry" />
        </mxCell>
        <mxCell id="moYprUT44ZE071w_t-Pb-2" value="" style="rounded=0;whiteSpace=wrap;html=1;fillColor=#f8cecc;strokeColor=#b85450;" vertex="1" parent="1">
          <mxGeometry x="320" y="480" width="130" height="20" as="geometry" />
        </mxCell>
        <mxCell id="moYprUT44ZE071w_t-Pb-4" value="" style="rounded=0;whiteSpace=wrap;html=1;fillColor=#dae8fc;strokeColor=#6c8ebf;" vertex="1" parent="1">
          <mxGeometry x="340" y="460" width="90" height="20" as="geometry" />
        </mxCell>
        <mxCell id="moYprUT44ZE071w_t-Pb-5" value="" style="rounded=0;whiteSpace=wrap;html=1;fillColor=#d5e8d4;strokeColor=#82b366;" vertex="1" parent="1">
          <mxGeometry x="360" y="440" width="50" height="20" as="geometry" />
        </mxCell>
        <mxCell id="moYprUT44ZE071w_t-Pb-7" value="" style="rounded=0;whiteSpace=wrap;html=1;fillColor=#f5f5f5;fontColor=#333333;strokeColor=#666666;" vertex="1" parent="1">
          <mxGeometry x="540" y="400" width="10" height="100" as="geometry" />
        </mxCell>
        <mxCell id="moYprUT44ZE071w_t-Pb-11" value="" style="rounded=0;whiteSpace=wrap;html=1;fillColor=#f5f5f5;fontColor=#333333;strokeColor=#666666;" vertex="1" parent="1">
          <mxGeometry x="700" y="400" width="10" height="100" as="geometry" />
        </mxCell>
      </root>
    </mxGraphModel>
  </diagram>
  <diagram id="XZS-lILkt3bWOIJtumAi" name="페이지-6">
    <mxGraphModel dx="1118" dy="654" grid="1" gridSize="10" guides="1" tooltips="1" connect="1" arrows="1" fold="1" page="1" pageScale="1" pageWidth="1169" pageHeight="827" math="0" shadow="0">
      <root>
        <mxCell id="0" />
        <mxCell id="1" parent="0" />
        <mxCell id="fdAhsGNnBQTYWDMpbRKw-1" value="f()" style="text;html=1;align=center;verticalAlign=middle;whiteSpace=wrap;rounded=0;fontSize=16;fontStyle=1" vertex="1" parent="1">
          <mxGeometry x="320" y="160" width="60" height="30" as="geometry" />
        </mxCell>
        <mxCell id="fdAhsGNnBQTYWDMpbRKw-2" value="" style="curved=1;endArrow=classic;html=1;rounded=0;exitX=1;exitY=0.25;exitDx=0;exitDy=0;entryX=1;entryY=0.75;entryDx=0;entryDy=0;" edge="1" parent="1" source="fdAhsGNnBQTYWDMpbRKw-1" target="fdAhsGNnBQTYWDMpbRKw-1">
          <mxGeometry width="50" height="50" relative="1" as="geometry">
            <mxPoint x="550" y="140" as="sourcePoint" />
            <mxPoint x="600" y="90" as="targetPoint" />
            <Array as="points">
              <mxPoint x="430" y="130" />
              <mxPoint x="430" y="220" />
            </Array>
          </mxGeometry>
        </mxCell>
        <mxCell id="fdAhsGNnBQTYWDMpbRKw-3" value="f()" style="text;html=1;align=center;verticalAlign=middle;whiteSpace=wrap;rounded=0;fontSize=16;fontStyle=1" vertex="1" parent="1">
          <mxGeometry x="475" y="160" width="60" height="30" as="geometry" />
        </mxCell>
        <mxCell id="fdAhsGNnBQTYWDMpbRKw-4" value="" style="curved=1;endArrow=classic;html=1;rounded=0;exitX=0.75;exitY=0;exitDx=0;exitDy=0;entryX=0;entryY=0.5;entryDx=0;entryDy=0;" edge="1" parent="1" source="fdAhsGNnBQTYWDMpbRKw-3" target="fdAhsGNnBQTYWDMpbRKw-5">
          <mxGeometry width="50" height="50" relative="1" as="geometry">
            <mxPoint x="705" y="140" as="sourcePoint" />
            <mxPoint x="755" y="90" as="targetPoint" />
            <Array as="points">
              <mxPoint x="530" y="130" />
              <mxPoint x="590" y="130" />
            </Array>
          </mxGeometry>
        </mxCell>
        <mxCell id="fdAhsGNnBQTYWDMpbRKw-5" value="g()" style="text;html=1;align=center;verticalAlign=middle;whiteSpace=wrap;rounded=0;fontSize=16;fontStyle=1" vertex="1" parent="1">
          <mxGeometry x="600" y="130" width="60" height="30" as="geometry" />
        </mxCell>
        <mxCell id="fdAhsGNnBQTYWDMpbRKw-6" value="h()" style="text;html=1;align=center;verticalAlign=middle;whiteSpace=wrap;rounded=0;fontSize=16;fontStyle=1" vertex="1" parent="1">
          <mxGeometry x="555" y="250" width="60" height="30" as="geometry" />
        </mxCell>
        <mxCell id="fdAhsGNnBQTYWDMpbRKw-7" value="" style="curved=1;endArrow=classic;html=1;rounded=0;exitX=0.5;exitY=1;exitDx=0;exitDy=0;entryX=0.75;entryY=0;entryDx=0;entryDy=0;" edge="1" parent="1" source="fdAhsGNnBQTYWDMpbRKw-5" target="fdAhsGNnBQTYWDMpbRKw-6">
          <mxGeometry width="50" height="50" relative="1" as="geometry">
            <mxPoint x="630" y="248" as="sourcePoint" />
            <mxPoint x="695" y="225" as="targetPoint" />
            <Array as="points">
              <mxPoint x="685" y="210" />
            </Array>
          </mxGeometry>
        </mxCell>
        <mxCell id="fdAhsGNnBQTYWDMpbRKw-8" value="" style="curved=1;endArrow=classic;html=1;rounded=0;exitX=0;exitY=0.25;exitDx=0;exitDy=0;entryX=0.5;entryY=1;entryDx=0;entryDy=0;" edge="1" parent="1" source="fdAhsGNnBQTYWDMpbRKw-6" target="fdAhsGNnBQTYWDMpbRKw-3">
          <mxGeometry width="50" height="50" relative="1" as="geometry">
            <mxPoint x="640" y="170" as="sourcePoint" />
            <mxPoint x="610" y="260" as="targetPoint" />
            <Array as="points">
              <mxPoint x="480" y="260" />
            </Array>
          </mxGeometry>
        </mxCell>
        <mxCell id="fdAhsGNnBQTYWDMpbRKw-9" value="f()" style="text;html=1;align=center;verticalAlign=middle;whiteSpace=wrap;rounded=0;fontSize=16;fontStyle=1" vertex="1" parent="1">
          <mxGeometry x="320" y="280" width="60" height="30" as="geometry" />
        </mxCell>
        <mxCell id="fdAhsGNnBQTYWDMpbRKw-10" value="g()" style="text;html=1;align=center;verticalAlign=middle;whiteSpace=wrap;rounded=0;fontSize=16;fontStyle=1" vertex="1" parent="1">
          <mxGeometry x="440" y="280" width="60" height="30" as="geometry" />
        </mxCell>
        <mxCell id="fdAhsGNnBQTYWDMpbRKw-11" value="" style="curved=1;endArrow=classic;html=1;rounded=0;exitX=0.75;exitY=0;exitDx=0;exitDy=0;entryX=0.25;entryY=0;entryDx=0;entryDy=0;" edge="1" parent="1" source="fdAhsGNnBQTYWDMpbRKw-9" target="fdAhsGNnBQTYWDMpbRKw-10">
          <mxGeometry width="50" height="50" relative="1" as="geometry">
            <mxPoint x="360" y="290" as="sourcePoint" />
            <mxPoint x="440" y="275" as="targetPoint" />
            <Array as="points">
              <mxPoint x="390" y="260" />
              <mxPoint x="430" y="260" />
            </Array>
          </mxGeometry>
        </mxCell>
        <mxCell id="fdAhsGNnBQTYWDMpbRKw-12" value="" style="curved=1;endArrow=classic;html=1;rounded=0;exitX=0.25;exitY=1;exitDx=0;exitDy=0;entryX=0.75;entryY=1;entryDx=0;entryDy=0;" edge="1" parent="1" source="fdAhsGNnBQTYWDMpbRKw-10" target="fdAhsGNnBQTYWDMpbRKw-9">
          <mxGeometry width="50" height="50" relative="1" as="geometry">
            <mxPoint x="375" y="360" as="sourcePoint" />
            <mxPoint x="465" y="360" as="targetPoint" />
            <Array as="points">
              <mxPoint x="430" y="340" />
              <mxPoint x="380" y="340" />
            </Array>
          </mxGeometry>
        </mxCell>
        <mxCell id="fdAhsGNnBQTYWDMpbRKw-13" value="Direct recursion" style="text;html=1;align=center;verticalAlign=middle;whiteSpace=wrap;rounded=0;" vertex="1" parent="1">
          <mxGeometry x="340" y="200" width="90" height="30" as="geometry" />
        </mxCell>
        <mxCell id="fdAhsGNnBQTYWDMpbRKw-14" value="Indirect recursion" style="text;html=1;align=center;verticalAlign=middle;whiteSpace=wrap;rounded=0;" vertex="1" parent="1">
          <mxGeometry x="535" y="300" width="90" height="30" as="geometry" />
        </mxCell>
        <mxCell id="fdAhsGNnBQTYWDMpbRKw-15" value="Mutual recursion" style="text;html=1;align=center;verticalAlign=middle;whiteSpace=wrap;rounded=0;" vertex="1" parent="1">
          <mxGeometry x="360" y="350" width="90" height="30" as="geometry" />
        </mxCell>
      </root>
    </mxGraphModel>
  </diagram>
</mxfile>
